# AST/ASF file generated using VICON BodyLanguage
# -----------------------------------------------
:version 1.10
:name VICON
:units
  mass 1.0
  length 0.45
  angle deg
:documentation
   .ast/.asf automatically generated from VICON data using
   VICON BodyBuilder and BodyLanguage model FoxedUp or BRILLIANT.MOD
:root
   order TX TY TZ RX RY RZ
   axis XYZ
   position 0 0 0  
   orientation 0 0 0 
:bonedata
  begin
     id 1 
     name lhipjoint
     direction 0.577973 -0.728611 0.367523 
     length 2.48544 
     axis 0 0 0  XYZ
  end
  begin
     id 2 
     name lfemur
     direction 0.34202 -0.939693 0  
     length 7.1921  
     axis 0 0 20  XYZ
    dof rx ry rz
    limits (-160.0 20.0)
           (-70.0 70.0)
           (-60.0 70.0)
  end
  begin
     id 3 
     name ltibia
     direction 0.34202 -0.939693 0   
     length 7.71059   
     axis 0 0 20   XYZ
    dof rx
    limits (-10.0 170.0)
  end
  begin
     id 4 
     name lfoot
     direction 0.089538 -0.246004 0.965124   
     length 2.19909   
     axis -90 7.62852e-016 20   XYZ
    dof rx rz
    limits (-45.0 90.0)
           (-70.0 20.0)
  end
  begin
     id 5 
     name ltoes
     direction 1.53544e-011 -4.21829e-011 1   
     length 1.10116   
     axis -90 7.62852e-016 20   XYZ
    dof rx
    limits (-90.0 20.0)
  end
  begin
     id 6 
     name rhipjoint
     direction -0.554414 -0.743062 0.374812   
     length 2.4371  
     axis 0 0 0  XYZ 
  end
  begin
     id 7 
     name rfemur
     direction -0.34202 -0.939693 0   
     length 7.47254   
     axis 0 0 -20   XYZ
    dof rx ry rz
    limits (-160.0 20.0)
           (-70.0 70.0)
           (-70.0 60.0)
  end
  begin
     id 8 
     name rtibia
     direction -0.34202 -0.939693 0   
     length 7.65855   
     axis 0 0 -20   XYZ
    dof rx
    limits (-10.0 170.0)
 end
 begin
     id 9 
     name rfoot
     direction -0.133779 -0.367555 0.92033   
     length 2.43006  
     axis -90 -7.62852e-016 -20   XYZ
    dof rx rz
    limits (-45.0 90.0)
           (-20.0 70.0)
  end
  begin
     id 10 
     name rtoes
     direction -1.53563e-011 -4.21889e-011 1   
     length 1.19625   
     axis -90 -7.62852e-016 -20   XYZ
    dof rx
    limits (-90.0 20.0)
  end
  begin
     id 11 
     name lowerback
     direction 0.0249066 0.998043 -0.0573585   
     length 2.08485   
     axis 0 0 0   XYZ
    dof rx ry rz
    limits (-20.0 45.0)
           (-30.0 30.0)
           (-30.0 30.0)
  end
  begin
     id 12 
     name upperback
     direction 0.0237884 0.999673 0.00943178   
     length 2.08515   
     axis 0 0 0   XYZ
    dof rx ry rz
    limits (-20.0 45.0)
           (-30.0 30.0)
           (-30.0 30.0)
  end
  begin
     id 13 
     name thorax
     direction 0.0106671 0.999301 0.0358174   
     length 2.09037   
     axis 0 0 0   XYZ
    dof rx ry rz
    limits (-20.0 45.0)
           (-30.0 30.0)
           (-30.0 30.0)
  end
  begin
     id 14 
     name lowerneck
     direction -0.0580016 0.987052 0.149546   
     length 1.84454   
     axis 0 0 0   XYZ
    dof rx ry rz
    limits (-20.0 45.0)
           (-30.0 30.0)
           (-30.0 30.0)
  end
  begin
     id 15 
     name upperneck
     direction 0.079456 0.981963 -0.171567   
     length 1.88141   
     axis 0 0 0   XYZ
    dof rx ry rz
    limits (-20.0 45.0)
           (-30.0 30.0)
           (-30.0 30.0)
  end
  begin
     id 16
     name head
     direction 0.0262167 0.9967 -0.0768276  
     length 1.89541  
     axis 0 0 0   XYZ
    dof rx ry rz
    limits (-20.0 45.0)
           (-30.0 30.0)
           (-30.0 30.0)
  end
  begin
     id 17 
     name lclavicle
     direction 0.946135 0.322134 -0.0325326  
     length 3.949  
     axis 0 0 0   XYZ
    dof ry rz
    limits (-20.0 10.0)
           (0.0 20.0)
  end
  begin
     id 18 
     name lhumerus
     direction 1 -4.48964e-011 1.94005e-028   
     length 5.10995   
     axis 180 -30 -90   XYZ
    dof rx ry rz
    limits (-60.0 90.0)
           (-90.0 90.0)
           (-90.0 90.0)
  end
  begin
     id 19
     name lradius
     direction 1 -4.48976e-011 2.87852e-027   
     length 3.21207   
     axis 180 -30 -90   XYZ
    dof rx
    limits (-10.0 170.0)
  end
  begin
     id 20
     name lwrist
     direction 1 -4.48963e-011 1.9975e-027   
     length 1.60604   
     axis 2.96054e-016 90 90   XYZ
    dof ry
    limits (-180.0 0.0)
 end
  begin
     id 21 
     name lhand
     direction 1 -4.48919e-011 4.00227e-027   
     length 0.63349   
     axis -2.5488e-015 90 90   XYZ
    dof rx rz
    limits (-90.0 90.0)
           (-45.0 45.0)
  end
  begin
     id 22 
     name lfingers
     direction 1 -4.49037e-011 7.9652e-027   
     length 0.510736   
     axis -5.0975e-015 90 90   XYZ
    dof rx
    limits (0.0 90.0)
  end
  begin
     id 23
     name lthumb
     direction 0.707107 -6.34922e-011 0.707107   
     length 0.733318   
     axis -90 45 -4.48553e-014   XYZ
    dof rx rz
    limits (-45.0 45.0)
           (-45.0 45.0)
  end
  begin
     id 24 
     name rclavicle
     direction -0.940085 0.328911 -0.0897654   
     length 3.93848  
     axis 0 0 0   XYZ 
    dof ry rz
    limits (-10.0 20.0)
           (-20.0 0.0)
  end
  begin
     id 25 
     name rhumerus
     direction -1 -4.48958e-011 3.02044e-027  
     length 5.25109   
     axis 180 30 90   XYZ
    dof rx ry rz
    limits (-90.0 60.0)
           (-90.0 90.0)
           (-90.0 90.0)
  end
  begin
     id 26 
     name rradius
     direction -1 -4.4897e-011 9.78352e-028   
     length 3.28364   
     axis 180 30 90   XYZ
    dof rx
    limits (-10.0 170.0)
  end
  begin
     id 27 
     name rwrist
     direction -1 -4.48943e-011 1.99918e-027   
     length 1.64182   
     axis 2.96054e-016 -90 -90   XYZ
    dof ry
    limits (-180.0 0.0)
  end
  begin
     id 28
     name rhand
     direction -1 -4.49024e-011 3.98478e-027   
     length 0.599745   
     axis -2.5488e-015 -90 -90   XYZ
    dof rx rz
    limits (-90.0 90.0)
           (-45.0 45.0)
  end
  begin
     id 29
     name rfingers
     direction -1 -4.48914e-011 8.00621e-027   
     length 0.48353   
     axis -5.0975e-015 -90 -90   XYZ
    dof rx
    limits (0.0 90.0)
  end
  begin
     id 30
     name rthumb
     direction -0.707107 -6.34992e-011 0.707107   
     length 0.694255   
     axis -90 -45 4.48553e-014   XYZ
    dof rx rz
    limits (-45.0 45.0)
           (-45.0 45.0)
  end
:hierarchy
  begin
    root lhipjoint rhipjoint lowerback
    lhipjoint lfemur
    lfemur ltibia
    ltibia lfoot
    lfoot ltoes
    rhipjoint rfemur
    rfemur rtibia
    rtibia rfoot
    rfoot rtoes
    lowerback upperback
    upperback thorax
    thorax lowerneck lclavicle rclavicle
    lowerneck upperneck
    upperneck head
    lclavicle lhumerus
    lhumerus lradius
    lradius lwrist
    lwrist lhand lthumb
    lhand lfingers
    rclavicle rhumerus
    rhumerus rradius
    rradius rwrist
    rwrist rhand rthumb
    rhand rfingers
  end

#!OML:ASF E:\CV Data\Top Level 1\Subject 1\Session 1\player.ASF
:FULLY-SPECIFIED
:DEGREES
63
root 5.42242 17.8529 -32.5736 6.19285 -7.10604 -5.38042
lowerback 3.79682 -0.41003 2.00356
upperback -2.04841 -0.308569 3.30916
thorax -4.24079 -0.162032 2.32122
lowerneck -15.3372 -9.47673 -14.262
upperneck 23.6163 -11.7225 7.73518
head 11.58 -5.74179 3.38296
rclavicle -1.29334e-014 -1.31198e-014
rhumerus -24.6541 -13.0702 -80.3422
rradius 21.3642
rwrist -2.29233
rhand -20.4845 2.94136
rfingers 7.12502
rthumb 5.87203 -26.9573
lclavicle -1.29334e-014 -1.31198e-014
lhumerus -34.181 10.7574 80.394
lradius 29.9784
lwrist -5.696
lhand -10.6669 10.7722
lfingers 7.12502
lthumb 15.3414 40.1831
rfemur -10.2018 4.99911 22.3989
rtibia 22.3054
rfoot -15.5364 -7.18135
rtoes 1.54214
lfemur -6.64593 0.639183 -13.4682
ltibia 17.8559
lfoot -10.9405 5.64299
ltoes -3.66903
64
root 5.42392 17.8537 -32.5725 6.22134 -7.08959 -5.38335
lowerback 3.84365 -0.383902 2.00053
upperback -2.03762 -0.272423 3.30346
thorax -4.25706 -0.144044 2.31473
lowerneck -15.4545 -9.37057 -14.1914
upperneck 23.77 -11.5775 7.7168
head 11.6365 -5.67001 3.38806
rclavicle 1.963e-015 -1.66979e-014
rhumerus -24.7294 -13.4672 -80.248
rradius 21.1418
rwrist -1.8587
rhand -20.3985 2.9981
rfingers 7.12502
rthumb 5.95513 -26.8982
lclavicle 1.963e-015 -1.66979e-014
lhumerus -34.1964 10.8618 80.3378
lradius 29.7552
lwrist -5.91092
lhand -10.704 10.6024
lfingers 7.12502
lthumb 15.3056 40.0161
rfemur -10.2121 4.98423 22.3937
rtibia 22.2706
rfoot -15.5291 -7.17333
rtoes 1.54
lfemur -6.67191 0.620445 -13.4707
ltibia 17.8484
lfoot -10.9454 5.64741
ltoes -3.62776
65
root 5.42543 17.8544 -32.5713 6.25338 -7.07069 -5.38669
lowerback 3.88322 -0.358931 1.99875
upperback -2.02444 -0.238153 3.29802
thorax -4.26666 -0.127021 2.30779
lowerneck -15.6039 -9.27284 -14.1072
upperneck 23.9268 -11.4401 7.6857
head 11.7 -5.60099 3.38385
rclavicle -5.54112e-015 -3.18055e-015
rhumerus -24.7839 -13.9598 -80.1265
rradius 20.8793
rwrist -1.31802
rhand -20.2813 3.04799
rfingers 7.12502
rthumb 6.06821 -26.8451
lclavicle -5.54112e-015 -3.18055e-015
lhumerus -34.2102 10.96 80.2835
lradius 29.5608
lwrist -6.11214
lhand -10.7419 10.4693
lfingers 7.12502
lthumb 15.2692 39.8857
rfemur -10.2274 4.967 22.3883
rtibia 22.2354
rfoot -15.5199 -7.16578
rtoes 1.53155
lfemur -6.70617 0.598393 -13.473
ltibia 17.85
lfoot -10.9465 5.65521
ltoes -3.55354
66
root 5.42692 17.8548 -32.5703 6.28509 -7.04461 -5.39256
lowerback 3.91494 -0.33738 2.00123
upperback -2.00807 -0.208646 3.29327
thorax -4.26839 -0.112474 2.29938
lowerneck -15.774 -9.18005 -14.0127
upperneck 24.0786 -11.3072 7.64725
head 11.7653 -5.5333 3.37382
rclavicle -4.84041e-014 1.98785e-014
rhumerus -24.8308 -14.5017 -79.9903
rradius 20.6015
rwrist -0.73656
rhand -20.1279 3.11878
rfingers 7.12502
rthumb 6.21632 -26.77
lclavicle -4.84041e-014 1.98785e-014
lhumerus -34.2244 11.0509 80.23
lradius 29.3877
lwrist -6.27377
lhand -10.7904 10.3338
lfingers 7.12502
lthumb 15.2224 39.7538
rfemur -10.2428 4.95076 22.3865
rtibia 22.2005
rfoot -15.5075 -7.16714
rtoes 1.52427
lfemur -6.74822 0.600944 -13.4703
ltibia 17.8615
lfoot -10.9548 5.63482
ltoes -3.46672
67
root 5.42837 17.855 -32.5693 6.31465 -7.01279 -5.39485
lowerback 3.94342 -0.315538 2.00212
upperback -1.98298 -0.179401 3.28631
thorax -4.2592 -0.0980343 2.28939
lowerneck -15.9891 -9.0934 -13.9143
upperneck 24.2371 -11.1776 7.60703
head 11.8425 -5.46568 3.36049
rclavicle 1.49089e-014 -2.94201e-014
rhumerus -24.9387 -14.6734 -79.9574
rradius 20.5299
rwrist -0.558975
rhand -19.9948 3.06458
rfingers 7.12502
rthumb 6.34479 -26.8204
lclavicle 1.49089e-014 -2.94201e-014
lhumerus -34.2212 11.1226 80.1871
lradius 29.2368
lwrist -6.3764
lhand -10.8082 10.2386
lfingers 7.12502
lthumb 15.2053 39.6599
rfemur -10.2561 4.92984 22.3816
rtibia 22.1666
rfoot -15.4936 -7.17332
rtoes 1.52581
lfemur -6.79327 0.599277 -13.4711
ltibia 17.8799
lfoot -10.9672 5.61424
ltoes -3.39852
68
root 5.42973 17.8552 -32.5686 6.34461 -6.97126 -5.4016
lowerback 3.97245 -0.295202 2.0077
upperback -1.95616 -0.151854 3.28174
thorax -4.24847 -0.0845347 2.27936
lowerneck -16.2177 -9.00588 -13.8247
upperneck 24.397 -11.0438 7.57101
head 11.9238 -5.39615 3.35065
rclavicle 1.18525e-014 -5.96354e-015
rhumerus -25.1235 -14.4404 -80.0343
rradius 20.677
rwrist -0.810878
rhand -19.891 2.90008
rfingers 7.12502
rthumb 6.44506 -26.9819
lclavicle 1.18525e-014 -5.96354e-015
lhumerus -34.2142 11.1777 80.1555
lradius 29.1167
lwrist -6.42292
lhand -10.7855 10.2067
lfingers 7.12502
lthumb 15.2272 39.6263
rfemur -10.2691 4.9084 22.383
rtibia 22.1344
rfoot -15.4813 -7.18814
rtoes 1.54206
lfemur -6.84273 0.597499 -13.465
ltibia 17.9003
lfoot -10.9833 5.58394
ltoes -3.34923
69
root 5.43102 17.8554 -32.5678 6.37414 -6.92338 -5.40911
lowerback 4.0057 -0.276381 2.01107
upperback -1.93029 -0.12618 3.27878
thorax -4.24107 -0.0718813 2.27244
lowerneck -16.4115 -8.91365 -13.758
upperneck 24.5411 -10.9064 7.55423
head 11.9948 -5.32588 3.35369
rclavicle -2.80286e-014 3.97569e-016
rhumerus -25.3001 -14.2409 -80.1026
rradius 20.8023
rwrist -1.05218
rhand -19.8252 2.7901
rfingers 7.12502
rthumb 6.50859 -27.0899
lclavicle -2.80286e-014 3.97569e-016
lhumerus -34.2084 11.2086 80.1372
lradius 29.0237
lwrist -6.41724
lhand -10.7401 10.2477
lfingers 7.12502
lthumb 15.2708 39.664
rfemur -10.2797 4.88613 22.3864
rtibia 22.1021
rfoot -15.4713 -7.20923
rtoes 1.56146
lfemur -6.89181 0.589055 -13.4575
ltibia 17.9171
lfoot -10.9987 5.5545
ltoes -3.3358
70
root 5.43221 17.8558 -32.5672 6.39842 -6.86774 -5.41313
lowerback 4.0474 -0.260745 2.00803
upperback -1.90812 -0.104586 3.27691
thorax -4.24219 -0.0610686 2.27067
lowerneck -16.5479 -8.81748 -13.719
upperneck 24.6618 -10.7684 7.55901
head 12.049 -5.25696 3.37132
rclavicle -2.55935e-015 -1.43125e-014
rhumerus -25.4684 -14.1169 -80.1455
rradius 20.8886
rwrist -1.21044
rhand -19.7612 2.71013
rfingers 7.12502
rthumb 6.57034 -27.1679
lclavicle -2.55935e-015 -1.43125e-014
lhumerus -34.2157 11.2319 80.1201
lradius 28.9604
lwrist -6.41613
lhand -10.6675 10.3525
lfingers 7.12502
lthumb 15.3408 39.7635
rfemur -10.2817 4.85735 22.3879
rtibia 22.0672
rfoot -15.4639 -7.23214
rtoes 1.58724
lfemur -6.93699 0.566758 -13.453
ltibia 17.9325
lfoot -11.0161 5.5295
ltoes -3.3425
71
root 5.43324 17.8562 -32.5669 6.41974 -6.80526 -5.41875
lowerback 4.09773 -0.250231 2.00074
upperback -1.88624 -0.0895583 3.2791
thorax -4.24834 -0.0533511 2.2761
lowerneck -16.6467 -8.71917 -13.6959
upperneck 24.7633 -10.6302 7.57537
head 12.0901 -5.18908 3.39717
rclavicle -1.07095e-014 1.55052e-014
rhumerus -25.6321 -13.9755 -80.1932
rradius 20.9785
rwrist -1.37043
rhand -19.7092 2.62844
rfingers 7.12502
rthumb 6.62054 -27.2481
lclavicle -1.07095e-014 1.55052e-014
lhumerus -34.2281 11.2538 80.1044
lradius 28.9069
lwrist -6.42135
lhand -10.6226 10.4455
lfingers 7.12502
lthumb 15.384 39.8531
rfemur -10.2783 4.82947 22.3931
rtibia 22.0284
rfoot -15.4559 -7.2616
rtoes 1.59953
lfemur -6.97951 0.535872 -13.4448
ltibia 17.9447
lfoot -11.031 5.50289
ltoes -3.34692
